<?xml version="1.0" standalone="no"?>
<!DOCTYPE svg PUBLIC "-//W3C//DTD SVG 20010904//EN"
 "http://www.w3.org/TR/2001/REC-SVG-20010904/DTD/svg10.dtd">
<svg version="1.0" xmlns="http://www.w3.org/2000/svg"
 width="1024.000000pt" height="512.000000pt" viewBox="0 0 1024.000000 512.000000"
 preserveAspectRatio="xMidYMid meet">

<g transform="translate(0.000000,512.000000) scale(0.100000,-0.100000)"
fill="#000000" stroke="none">
<path d="M4482 4804 c-13 -8 -55 -79 -93 -157 -39 -78 -72 -143 -74 -145 -1
-2 -76 -14 -166 -27 -185 -28 -209 -40 -209 -104 0 -32 12 -47 121 -157 l121
-121 -27 -162 c-29 -177 -27 -206 20 -231 35 -19 66 -9 215 71 l135 71 147
-76 c80 -42 157 -76 170 -76 31 0 67 26 78 56 6 16 1 73 -19 183 l-28 160 119
118 c120 119 135 143 124 188 -10 40 -46 55 -182 75 -71 11 -144 22 -162 25
-30 6 -37 15 -107 155 -41 82 -83 154 -94 160 -28 15 -63 12 -89 -6z m92 -352
c24 -48 51 -94 59 -100 12 -10 162 -41 202 -42 5 0 -21 -30 -57 -67 -37 -38
-71 -79 -76 -92 -5 -15 -3 -57 5 -113 8 -50 13 -92 10 -94 -2 -2 -45 17 -95
43 l-90 46 -98 -47 c-53 -25 -98 -45 -99 -44 -2 2 3 37 10 78 23 126 24 123
-61 210 l-75 78 33 5 c18 4 58 9 88 13 89 11 105 24 153 124 23 49 43 90 44
90 2 0 23 -40 47 -88z"/>
<path d="M2249 4729 c-230 -24 -465 -132 -636 -292 -364 -341 -457 -890 -223
-1324 22 -41 40 -76 40 -79 0 -2 -103 -4 -228 -4 l-228 0 -429 -211 c-237
-116 -443 -223 -458 -237 -107 -100 -112 -278 -12 -390 62 -69 121 -96 212
-95 81 0 41 -18 482 211 l233 122 107 0 106 0 -561 -562 c-508 -509 -563 -568
-578 -612 -43 -131 12 -268 134 -332 26 -14 56 -19 115 -19 105 0 133 16 260
145 56 57 170 155 259 222 l158 120 72 -71 71 -71 -262 -262 c-288 -289 -306
-314 -306 -418 0 -30 6 -73 13 -94 19 -60 92 -132 156 -156 70 -26 119 -25
191 1 54 20 85 48 412 373 225 223 504 517 769 806 228 250 425 465 437 478
l22 23 285 -41 c212 -30 292 -38 311 -31 14 6 142 88 284 182 206 137 282 195
374 282 135 126 169 178 176 271 15 195 -172 347 -360 292 -47 -14 -106 -53
-329 -222 -149 -112 -276 -203 -282 -201 -143 57 -196 80 -196 86 0 3 23 17
51 31 190 89 379 285 480 495 336 696 -117 1507 -886 1584 -119 12 -125 12
-236 0z m239 -174 c1 -1 -48 -170 -111 -375 l-112 -373 -61 -13 c-148 -30
-246 -147 -246 -294 0 -168 127 -294 297 -294 89 0 148 25 214 93 l49 50 301
-136 c166 -75 301 -142 301 -149 0 -20 -149 -162 -221 -210 -307 -204 -696
-215 -1012 -28 -114 68 -255 210 -325 329 -207 352 -162 790 113 1102 58 66
188 164 274 208 140 70 322 108 471 97 36 -3 66 -6 68 -7z m315 -96 c187 -95
355 -278 437 -476 66 -157 88 -368 55 -524 -17 -81 -59 -207 -74 -222 -6 -6
-127 44 -337 139 l-328 149 -8 38 c-11 54 -43 111 -83 150 l-35 34 116 386
117 386 49 -20 c27 -10 68 -29 91 -40z m-460 -879 c26 -30 43 -68 34 -76 -8
-9 -97 35 -97 48 0 29 13 58 25 58 7 0 25 -13 38 -30z m-710 -777 c149 -136
347 -231 555 -268 92 -16 256 -19 335 -6 44 7 60 3 245 -72 108 -43 201 -83
207 -88 5 -6 21 -66 36 -135 l25 -126 -30 6 c-192 33 -467 65 -489 57 -14 -5
-195 -196 -403 -423 -207 -227 -380 -413 -384 -413 -4 0 -160 151 -348 335
l-341 336 225 224 c124 124 232 239 240 257 16 37 8 67 -25 97 -20 18 -36 19
-211 17 l-190 -2 0 131 0 132 248 -3 249 -4 56 -52z m-733 -117 l0 -114 -119
-61 c-66 -34 -122 -61 -124 -61 -7 0 -70 190 -66 195 4 3 302 153 307 154 1 1
2 -50 2 -113z m2877 94 c18 -10 39 -33 48 -51 28 -53 14 -85 -75 -174 -44 -43
-81 -77 -83 -74 -30 36 -137 184 -137 190 0 14 121 102 159 115 48 17 51 17
88 -6z m-3314 -317 l36 -102 -89 -45 c-127 -66 -192 -60 -226 20 -16 38 -10
80 16 112 14 17 219 124 227 118 0 0 17 -47 36 -103z m2983 20 c33 -43 65 -85
72 -95 11 -15 -3 -28 -138 -118 -83 -56 -157 -103 -163 -106 -15 -5 -63 224
-50 237 17 16 208 158 214 159 4 0 33 -35 65 -77z m-2175 -946 l344 -337 -90
-91 c-50 -50 -148 -145 -218 -211 l-128 -122 -67 67 -66 66 152 148 c205 199
205 177 -1 381 -132 131 -158 152 -185 152 -24 0 -63 -24 -172 -106 -78 -58
-149 -108 -157 -111 -15 -6 -143 112 -143 132 0 15 363 376 376 373 6 -2 166
-155 355 -341z m-791 -222 l65 -66 -85 -84 c-48 -47 -98 -87 -114 -91 -67 -17
-131 56 -106 121 10 26 156 185 170 185 3 0 35 -29 70 -65z m518 -598 l62 -62
-83 -82 c-95 -95 -123 -109 -172 -89 -40 17 -55 42 -55 92 0 34 8 45 86 121
47 46 89 83 93 83 4 0 35 -28 69 -63z"/>
<path d="M2722 4228 c-12 -45 -20 -83 -19 -83 168 -73 256 -168 273 -297 l7
-48 89 0 89 0 -6 48 c-23 166 -98 289 -235 381 -52 35 -147 81 -168 81 -5 0
-19 -37 -30 -82z"/>
<path d="M2982 3543 l3 -88 85 0 85 0 3 88 3 87 -91 0 -91 0 3 -87z"/>
<path d="M1725 2501 c-16 -10 -108 -97 -202 -193 -231 -233 -233 -194 20 -446
185 -184 195 -192 232 -192 38 0 48 8 232 193 177 177 193 195 193 228 0 32
-16 50 -198 232 -212 211 -218 215 -277 178z"/>
<path d="M770 4055 l0 -85 -85 0 -85 0 0 -85 0 -85 85 0 85 0 0 -85 0 -85 85
0 85 0 0 85 0 85 85 0 85 0 0 85 0 85 -85 0 -85 0 0 85 0 85 -85 0 -85 0 0
-85z m170 -170 l0 -85 -85 0 -85 0 0 85 0 85 85 0 85 0 0 -85z"/>
<path d="M4320 3205 l0 -185 90 0 90 0 0 -930 0 -930 190 0 190 0 0 369 0 368
253 6 c271 7 311 12 415 53 146 58 302 194 378 330 64 114 87 208 88 354 0
147 -15 215 -74 335 -74 152 -197 271 -355 346 -142 66 -170 69 -750 69 l-515
0 0 -185z m1045 -200 c33 -9 77 -27 97 -40 253 -167 234 -510 -37 -654 -50
-26 -52 -26 -297 -29 l-248 -3 0 370 0 371 213 0 c159 0 228 -4 272 -15z"/>
<path d="M6602 3203 l3 -188 108 -3 107 -3 0 -924 0 -925 185 0 185 0 0 1115
0 1115 -295 0 -295 0 2 -187z"/>
<path d="M6365 2955 c-5 -2 -22 -6 -37 -9 -35 -8 -85 -50 -105 -89 -9 -18 -16
-54 -16 -82 0 -191 259 -254 342 -83 55 115 -11 245 -134 262 -22 2 -44 3 -50
1z"/>
<path d="M9100 2570 l0 -390 -190 0 -190 0 0 -185 0 -185 190 0 190 0 0 -192
c-1 -263 16 -373 80 -514 128 -284 457 -513 756 -526 l79 -3 3 177 2 176 -52
7 c-196 27 -375 150 -456 314 l-37 75 -3 243 -3 243 190 0 191 0 0 185 0 185
-190 0 -190 0 -2 388 -3 387 -182 3 -183 2 0 -390z"/>
<path d="M6200 1805 l0 -645 185 0 185 0 0 645 0 645 -185 0 -185 0 0 -645z"/>
<path d="M7790 2430 c-234 -63 -413 -251 -466 -488 -21 -97 -15 -251 15 -335
74 -209 241 -372 446 -433 93 -28 256 -23 362 10 216 69 392 264 439 486 20
94 13 238 -15 330 -58 187 -225 357 -411 420 -95 33 -268 37 -370 10z m265
-369 c57 -26 114 -86 143 -149 21 -46 24 -65 20 -127 -10 -151 -119 -257 -263
-257 -73 0 -119 18 -175 69 -147 131 -106 382 74 464 54 24 148 25 201 0z"/>
<path d="M4010 1755 l0 -85 -85 0 -85 0 0 -90 0 -90 85 0 85 0 0 -85 0 -85 85
0 85 0 0 90 0 90 -85 0 -85 0 0 85 0 85 85 0 84 0 3 -87 3 -88 83 -3 82 -3 0
91 0 90 -85 0 -85 0 0 85 0 85 -85 0 -85 0 0 -85z"/>
<path d="M2390 1155 l0 -85 -85 0 -85 0 0 -85 0 -85 85 0 85 0 0 -85 0 -85 85
0 85 0 0 85 0 85 85 0 85 0 0 85 0 85 -85 0 -85 0 0 85 0 85 -85 0 -85 0 0
-85z m170 -170 l0 -85 -85 0 -85 0 0 85 0 85 85 0 85 0 0 -85z"/>
<path d="M3410 815 l0 -85 -85 0 -85 0 0 -85 0 -85 85 0 84 0 3 -87 3 -88 85
0 85 0 3 88 3 87 85 0 85 0 -3 83 -3 82 -82 3 -82 3 -3 82 -3 82 -87 3 -88 3
0 -86z m170 -170 l0 -85 -85 0 -85 0 0 85 0 85 85 0 85 0 0 -85z"/>
</g>
</svg>
